<svg xmlns="http://www.w3.org/2000/svg" width="14" height="12" viewBox="0 0 14 12">
  <defs>
    <style>
      .cls-1 {
        fill: #fff;
        fill-rule: evenodd;
      }
    </style>
  </defs>
  <path id="Path" class="cls-1" d="M1297.57,5707.17a0.577,0.577,0,0,0-.83.02,0.607,0.607,0,0,0,.02.84l4.48,4.37h-11.66a0.6,0.6,0,0,0,0,1.2h11.64l-4.46,4.37a0.607,0.607,0,0,0-.02.84,0.57,0.57,0,0,0,.43.19,0.578,0.578,0,0,0,.4-0.17l5.09-4.98a1.232,1.232,0,0,0-.01-1.71Z" transform="translate(-1289 -5707)"/>
</svg>
